<?xml version="1.0" encoding="UTF-8"?><svg id="b" xmlns="http://www.w3.org/2000/svg" viewBox="0 0 108.84 127.38"><g id="c"><path d="m62.37,1.5c-9.27,15.37-16.63,31.76-23.74,48.21s-14,33-22.46,48.8c-4.74,8.86-9.98,17.45-15.94,25.54-.55.74,0,2.04.9,2.2,8.71,1.61,17.54,1.18,26.33.62,9.11-.59,18.22-1.18,27.33-1.77s18.06-1.17,27.1-1.75c3.92-.25,8.09-.22,11.74-1.89,3.13-1.43,5.44-4.17,7.06-7.14,1.74-3.17,2.9-6.68,3.95-10.13,1.1-3.64,1.99-7.34,2.66-11.08,1.35-7.62,1.85-15.39,1.43-23.13-.82-15.2-4.98-30.36-12.55-43.6-6.63-11.6-17.01-22.8-30.57-25.7-1.64-.35-3.31-.57-4.98-.68-1.93-.13-1.92,2.88,0,3,13.27.86,23.86,10.68,30.78,21.32,7.87,12.1,12.48,26.5,13.94,40.81,1.49,14.54-.18,29.46-5.25,43.2-1.11,3-2.51,6.06-4.8,8.34-2.66,2.64-6.17,3.19-9.77,3.44-8.67.59-17.33,1.12-26,1.68-8.62.56-17.24,1.11-25.85,1.67s-16.94,1.35-25.4.71c-2.13-.16-4.23-.43-6.33-.82l.9,2.2c10.6-14.39,18.84-30.31,26.25-46.54s14.11-33.02,21.77-49.27c4.3-9.13,8.92-18.11,14.14-26.75,1-1.66-1.59-3.17-2.59-1.51h0Z"/><path d="m43.45,79.58c-9.43,6.12-15.1,17.33-14.26,28.58.05.72.44,1.19,1.1,1.45,9.05,3.47,19.43-6.15,17.05-15.4-.48-1.87-3.37-1.08-2.89.8,1.85,7.22-6.53,14.33-13.36,11.71l1.1,1.45c-.77-10.18,4.18-20.41,12.77-25.99,1.61-1.05.11-3.65-1.51-2.59h0Z"/><path d="m57.17,76.33c-2.01,9.15-3,18.5-2.93,27.87.02,1.93,3.02,1.93,3,0-.07-9.11.87-18.18,2.82-27.08.41-1.88-2.48-2.69-2.89-.8h0Z"/><path d="m54.73,88.77c3.41-5.5,9.07-9.24,15.43-10.36l-1.9-1.45c-.43,6.42-4.97,12.28-11.05,14.34-1.57.53-1.35,2.93.4,2.95,5.18.06,10.01,2.43,13.31,6.4,1.24,1.49,3.35-.65,2.12-2.12-3.79-4.55-9.52-7.21-15.43-7.28l.4,2.95c7.42-2.5,12.73-9.42,13.26-17.23.07-1.05-1.01-1.6-1.9-1.45-7.11,1.24-13.43,5.62-17.22,11.74-1.02,1.65,1.57,3.15,2.59,1.51h0Z"/><path d="m82.24,80.53c-3.78,6.43-5.53,13.95-4.92,21.38.16,1.91,3.16,1.93,3,0-.57-6.94.98-13.86,4.51-19.87.98-1.67-1.61-3.18-2.59-1.51h0Z"/><path d="m89.83,85.58c-.87,5.22-1.74,10.43-2.61,15.65-.13.8.21,1.61,1.05,1.85.72.2,1.71-.24,1.85-1.05.87-5.22,1.74-10.43,2.61-15.65.13-.8-.21-1.61-1.05-1.85-.72-.2-1.71.24-1.85,1.05h0Z"/><path d="m87.21,82.72c4.55-4.28,10.83-6.31,17.03-5.65.81.08,1.5-.75,1.5-1.5,0-.88-.69-1.41-1.5-1.5-6.97-.73-14.06,1.75-19.15,6.53-1.41,1.33.71,3.44,2.12,2.12h0Z"/><path d="m51.11,54.05c2.49.88,3.37-2.63,1.96-4.13-.88-.93-2.32-.85-3.31-.16s-1.54,1.83-1.85,2.95c-1.43,5.22-.34,11.09,2.65,15.57.48.72,1.28.89,2.05.54,3.91-1.79,7.31-5.12,8.74-9.22,1.22-3.47.68-7.72-2.31-10.12-2.4-1.93-5.82-2.81-8.82-1.93-3.42,1-5.26,4.33-4.51,7.79.97,4.53,5.88,7.34,9.91,8.72,1.83.62,2.62-2.27.8-2.89-2.83-.96-6.07-2.7-7.44-5.5-.53-1.09-.56-2.54-.13-3.45.26-.54.36-.65.77-1.04.1-.09.16-.14.42-.3s.5-.27.61-.31c1.97-.71,4.22-.32,6.03.88.75.5,1.53,1.37,1.85,2.14.57,1.39.55,2.99.17,4.42-.98,3.76-4.18,6.65-7.61,8.23l2.05.54c-1.85-2.77-2.85-5.99-2.84-9.32,0-1.47.09-3.21.7-4.57.04-.09.42-.56.42-.63,0-.02-.36-.19-.49-.27-.48-.29.09.03-.1-.08-.05-.03-.02.16-.03-.06,0,.22-.05.05,0-.02.07-.27.29-.4.65-.38.63-.1.78-.19.46-.28-1.82-.64-2.61,2.25-.8,2.89h0Z"/><path d="m70.05,62.72c-.77-7.88,1.58-15.9,6.66-21.99l-2.36-.3c2.47,5.53,3.74,11.53,3.8,17.58.01,1.44,2.08,2.11,2.8.76,2.79-5.28,5.58-10.56,8.37-15.83.9-1.71-1.69-3.22-2.59-1.51-2.79,5.28-5.58,10.56-8.37,15.83l2.8.76c-.07-6.61-1.52-13.06-4.21-19.09-.38-.84-1.78-1-2.36-.3-5.58,6.69-8.39,15.42-7.54,24.11.19,1.9,3.19,1.92,3,0h0Z"/><path d="m93.19,40.06c-.74,6.89-1.49,13.78-2.23,20.67-.11,1.06,1.04,1.59,1.9,1.45,4.66-.8,9.31-1.59,13.97-2.39,1.9-.32,1.09-3.22-.8-2.89-4.66.8-9.31,1.59-13.97,2.39l1.9,1.45c.74-6.89,1.49-13.78,2.23-20.67.09-.81-.75-1.49-1.5-1.5-.88,0-1.41.7-1.5,1.5h0Z"/><path d="m93.63,57.6c2.28-1.56,4.56-3.11,6.84-4.67.65-.44,1-1.34.54-2.05-.42-.64-1.36-1.01-2.05-.54-2.28,1.56-4.56,3.11-6.84,4.67-.65.44-1,1.34-.54,2.05.42.64,1.36,1.01,2.05.54h0Z"/><path d="m94.34,54.9c-1.55-2.18-1.65-5.04-.4-7.32s3.98-3.51,6.62-3.13c1.46.21,2.82.86,3.87,1.95,1.34,1.39,3.46-.73,2.12-2.12-2.59-2.69-6.85-3.61-10.35-2.32s-5.91,4.75-6.1,8.6c-.1,2.05.46,4.18,1.65,5.85.47.66,1.31.97,2.05.54.65-.38,1.01-1.39.54-2.05h0Z"/></g></svg>