<?xml version="1.0" encoding="UTF-8"?><svg id="b" xmlns="http://www.w3.org/2000/svg" viewBox="0 0 199.24 140.83"><g id="c"><path d="m43.49,22.63c-9.95,7.18-19.91,14.36-29.86,21.54-4.13,2.98-8.71,5.9-11.34,10.41s-2.69,9.84-1.7,14.84c1.09,5.49,3.34,10.71,5.32,15.92,2.22,5.83,4.44,11.67,6.66,17.5,2.19,5.76,4.38,11.51,6.57,17.27,1.1,2.88,2.19,5.76,3.29,8.64.98,2.59,1.84,5.28,3.04,7.78,1,2.08,2.64,3.8,4.99,4.2,2.53.43,5.09-.51,7.43-1.36,4.68-1.7,9.14-3.97,13.33-6.67,8.51-5.49,15.9-12.53,22.88-19.82,1.76-1.83,3.49-3.69,5.22-5.55s3.52-3.61,4.69-5.81c2.75-5.18,0-11.13-1.57-16.25-3.55-11.62-7.31-23.18-11.27-34.67-1.97-5.71-3.99-11.39-6.06-17.06-1.01-2.76-2.02-5.51-3.05-8.26-.9-2.38-1.89-4.77-4-6.32-3.59-2.64-8.45-1.52-12,.59-3.99,2.37-6.49,6.31-9.69,9.55-1.53,1.54-3.23,2.92-5.29,3.68-1.8.66-1.02,3.56.8,2.89,4.17-1.54,7.04-4.79,9.87-8.08s5.73-6.35,10.08-7.09c1.75-.3,3.61,0,4.94,1.25,1.83,1.71,2.5,4.57,3.35,6.84,1.96,5.27,3.88,10.57,5.75,15.87,3.8,10.77,7.42,21.6,10.86,32.48,1.71,5.4,3.54,10.8,4.97,16.28.66,2.53.84,4.98-.56,7.29-1.22,2.03-3.02,3.71-4.62,5.43-6.49,6.98-13.14,13.89-20.66,19.78-3.72,2.91-7.69,5.54-11.89,7.72-2.04,1.06-4.13,2.01-6.28,2.81s-4.78,2.06-7,1.44-2.87-3.25-3.57-5.09c-1.01-2.65-2.01-5.29-3.02-7.94-2.07-5.45-4.14-10.89-6.22-16.34-4.08-10.73-8.4-21.4-12.23-32.22-1.62-4.57-3.07-9.48-2.57-14.38s3.58-8.59,7.39-11.55c4.4-3.43,9.04-6.57,13.56-9.83s9.42-6.79,14.12-10.19l6.86-4.95c1.55-1.12.06-3.72-1.51-2.59h0Z"/><path d="m71.71,59.65c1.11-9.42,2.22-18.84,3.33-28.26.51-4.35.88-8.75,1.6-13.08.61-3.65,1.64-7.43,4.42-10.05,2.63-2.47,6.29-3.43,9.75-4.02s6.66-.87,10-1.08c6.38-.39,13-.29,19.14,1.7s11,6.18,12.76,12.46c1.1,3.91,1.01,8.04.65,12.04-.4,4.4-1.07,8.79-1.74,13.15-2.81,18.19-6.99,36.17-12.5,53.74-1.09,3.47-2.28,7.29-5.76,9.04s-7.88,1.29-11.64,1.27c-9.58-.05-19.16-.1-28.74-.15-2.33-.01-4.67-.02-7-.04-1.93-.01-1.93,2.99,0,3,10.16.05,20.33.11,30.49.16,4.52.02,9.18.38,13.67-.24,4-.56,7.39-2.45,9.43-6.01s3.08-8.14,4.27-12.19c1.4-4.76,2.71-9.55,3.92-14.36,2.36-9.39,4.35-18.88,5.96-28.43.81-4.79,1.52-9.59,2.14-14.41.56-4.32,1.04-8.71.56-13.06-.82-7.32-4.65-13.59-11.25-17.03C119.21.71,112.25-.04,105.63,0c-3.46.02-6.91.27-10.35.65-3.82.42-7.74.87-11.32,2.35s-6.55,4.04-8.21,7.62-2.18,7.7-2.65,11.68c-1.18,9.99-2.35,19.99-3.53,29.98l-.87,7.37c-.23,1.91,2.78,1.9,3,0h0Z"/><path d="m135.32,57.48c4.97-12.18,11.01-26.41,24.46-31.15,5.64-1.98,11.65-1.58,16.88,1.34,4.93,2.75,8.77,7.16,11.92,11.77,1.66,2.43,3.17,4.96,4.59,7.53.64,1.16,1.26,2.32,1.86,3.5.88,1.71,1.7,3.44.75,5.3-.68,1.33-1.84,2.4-2.86,3.47-1.48,1.56-2.97,3.12-4.45,4.68-2.74,2.88-5.48,5.76-8.22,8.64-5.48,5.76-10.96,11.53-16.44,17.29-2.74,2.88-5.48,5.76-8.22,8.64-2.43,2.56-4.79,5.25-7.48,7.55s-5.82,3.89-9.35,4c-3.21.1-6.29-.96-9.05-2.52-6.15-3.5-11-9.15-15.13-14.8-1.13-1.54-3.73-.05-2.59,1.51,6.96,9.52,18.98,22.99,32.3,17.66,3.3-1.32,6.02-3.62,8.5-6.12,2.9-2.92,5.69-5.96,8.53-8.94,5.99-6.3,11.99-12.61,17.98-18.91,2.97-3.12,5.94-6.24,8.9-9.36s5.89-5.93,8.59-9.08c1.08-1.26,2.06-2.68,2.35-4.34.33-1.9-.29-3.69-1.11-5.38-1.4-2.88-2.99-5.7-4.66-8.43-6.4-10.48-16.2-20.91-29.65-19.04-15.18,2.11-23.7,16.34-29.15,29.19-.73,1.73-1.44,3.46-2.15,5.2s2.17,2.56,2.89.8h0Z"/><path d="m88.09,28.33c2.01,1.37,1.05,5.13,1.03,7.14-.03,3.06.84,5.82,3.55,7.51,2.92,1.83,6.85,2.3,10.18,2.91,3.76.68,7.6,1.11,11.41.6,3.36-.45,6.58-1.61,9.14-3.88,2.14-1.91,3.77-4.5,4.54-7.27s.63-5.47-.62-7.92c-1.46-2.87-4.4-4.6-7.42-5.39-4.09-1.06-8.55-.96-12.74-.91-4.91.06-9.8.45-14.67,1.11-.81.11-1.23,1.14-1.05,1.85.23.87,1.05,1.16,1.85,1.05,7.43-1,15.2-1.47,22.68-.74,2.83.28,5.98.99,7.91,3.25,1.49,1.74,1.81,4.14,1.32,6.32-1.23,5.54-5.92,8.88-11.35,9.6-3.46.46-7,.04-10.41-.59-2.93-.54-6.49-.92-9.1-2.47s-2.22-4.84-2.1-7.57-.16-5.49-2.63-7.17c-1.6-1.09-3.1,1.51-1.51,2.59h0Z"/><path d="m89.36,62.75c-4.01,7.9-7.79,17.35-3.26,25.86,1.75,3.28,4.68,6.09,8.31,7.1,3.95,1.09,8.02-.16,11.14-2.69,7.41-5.99,6.82-16.7,3.42-24.69-2.88-6.76-9.26-14.14-17.36-13.52-7.34.55-14.85,9.5-10.03,16.52,1.09,1.58,3.69.08,2.59-1.51-3.32-4.83,1.74-10.84,6.61-11.88,6.47-1.38,12.05,4.79,14.68,9.92,3.23,6.3,4.83,15.42-.18,21.26-2.13,2.48-5.25,4.26-8.6,3.97-3.04-.26-5.64-2.29-7.27-4.78-4.99-7.62-1.15-16.76,2.55-24.04.87-1.72-1.72-3.24-2.59-1.51h0Z"/><path d="m99.64,80.37c0-1.53,0-3.06,0-4.6,0-.78-.69-1.54-1.5-1.5s-1.5.66-1.5,1.5c0,1.53,0,3.06,0,4.6,0,.78.69,1.54,1.5,1.5s1.5-.66,1.5-1.5h0Z"/><path d="m11.8,64.64c3.04,12.98,8.31,25.52,15.64,36.66,3.12,4.74,6.95,9.54,12.21,11.98,4.97,2.31,10.49,2.11,15.32-.47s8.45-6.96,10.6-11.83c2.41-5.46,2.68-11.33,1.66-17.16-1.14-6.58-3.91-12.78-6.94-18.69-3.31-6.44-6.88-12.75-10.35-19.1-.76-1.39-1.57-2.89-2.95-3.77s-3.05-.92-4.57-.44c-1.87.58-3.59,1.71-5.29,2.65s-3.48,1.91-5.22,2.87c-7.4,4.06-14.79,8.13-22.19,12.19-1.69.93-.18,3.52,1.51,2.59,6.02-3.31,12.04-6.61,18.06-9.92,2.97-1.63,5.95-3.27,8.92-4.9,1.38-.76,2.74-1.61,4.18-2.26,1.34-.6,2.66-.84,3.68.4.88,1.06,1.47,2.45,2.12,3.65.84,1.53,1.68,3.07,2.51,4.6,1.63,2.99,3.28,5.98,4.9,8.98,2.92,5.4,5.75,10.92,7.52,16.82,1.62,5.41,2.44,11.37.93,16.9-1.29,4.73-4.11,9.15-8,12.16s-8.52,4.21-13.13,2.8c-5.06-1.54-8.85-5.75-11.8-9.95-7.87-11.21-13.31-24.26-16.43-37.55-.44-1.88-3.33-1.08-2.89.8h0Z"/><path d="m45.63,123.05c3.83-1.52,7.67-3.04,11.5-4.56.75-.3,1.28-1,1.05-1.85-.2-.72-1.09-1.35-1.85-1.05-3.83,1.52-7.67,3.04-11.5,4.56-.75.3-1.28,1-1.05,1.85.2.72,1.09,1.35,1.85,1.05h0Z"/><path d="m147.1,68.44c-2.59,8.08-6.35,15.7-11.14,22.7-1.09,1.6,1.51,3.1,2.59,1.51,4.93-7.21,8.78-15.11,11.44-23.42.59-1.84-2.3-2.63-2.89-.8h0Z"/><path d="m132.21,79.52c5.71,1.02,11.05,3.31,15.73,6.74.65.48,1.67.11,2.05-.54.45-.76.12-1.57-.54-2.05-4.85-3.56-10.52-5.99-16.44-7.04-.8-.14-1.62.22-1.85,1.05-.2.73.25,1.7,1.05,1.85h0Z"/><path d="m161.13,38.21c-3.54,4.73-7.07,9.45-10.61,14.18-.61.82.07,1.93.9,2.2,8.43,2.74,16.96,11.62,26.35,7.37,3.34-1.51,6.6-4.62,7.2-8.39.71-4.51-2.8-7.57-6.83-8.66-3.02-.82-6.2-1.19-9.29-1.74-3.44-.61-6.88-1.22-10.32-1.83-1.89-.33-2.7,2.56-.8,2.89,5.28.94,10.56,1.87,15.84,2.81,3.05.54,8.53,1.2,8.51,5.36-.02,3.08-2.99,5.63-5.54,6.83-3.63,1.71-7.5.55-10.96-1.06-4.5-2.09-8.61-4.94-13.36-6.48l.9,2.2c3.54-4.73,7.07-9.45,10.61-14.18,1.16-1.55-1.45-3.04-2.59-1.51h0Z"/></g></svg>