<?xml version="1.0" encoding="UTF-8"?><svg id="b" xmlns="http://www.w3.org/2000/svg" viewBox="0 0 152.73 135.62"><g id="c"><path d="m18.51,54.32c18.07-.43,36.13-1.62,54.1-3.6,17.94-1.98,35.8-4.72,53.5-8.23,5.01-.99,10.01-2.05,14.99-3.16,2.24-.5,4.54-1.28,6.82-1.52.38-.04.84-.08,1.22,0,.06.01.62.29.61.29.44-.12.23-.89.14-.69-.01.03-.24.07-.27.07.47.03,1.68-.41.73,1.39.9-1.71-1.69-3.22-2.59-1.51-1.66,3.15,3.33,4.12,4.69,1.6.85-1.58-.49-3.3-1.95-3.86-1.84-.7-3.87-.11-5.7.31-9.95,2.3-19.96,4.37-30.01,6.18-20.37,3.68-40.92,6.33-61.56,7.96-11.56.91-23.14,1.5-34.73,1.77-1.93.05-1.93,3.05,0,3h0Z"/><path d="m24.3,58.1c2.16-4.51,3.08-9.55,2.47-14.53-.1-.8-.62-1.5-1.5-1.5-.73,0-1.6.69-1.5,1.5.54,4.44-.12,8.97-2.06,13.01-.35.73-.2,1.62.54,2.05.66.38,1.7.2,2.05-.54h0Z"/><path d="m26.83,36.67v-15.38c0-1.93-3-1.93-3,0-.02,9.49-.03,18.98-.05,28.47,0,1.93,2.98,1.93,3,0,.11-11.88.22-23.77.33-35.65l-1.5,1.5c27.66-.89,55.25-3.67,82.53-8.3,7.71-1.31,15.4-2.77,23.05-4.38l-1.9-1.45c.11,13.26.21,26.52.32,39.78.02,1.93,3.02,1.93,3,0-.11-13.26-.21-26.52-.32-39.78,0-1.02-.95-1.65-1.9-1.45-26.9,5.64-54.18,9.45-81.6,11.38-7.72.54-15.45.94-23.19,1.18-.82.03-1.49.67-1.5,1.5-.11,11.88-.22,23.77-.33,35.65h3c.02-9.49.03-18.98.05-28.47h-3v15.38c0,1.93,3,1.93,3,0h0Z"/><path d="m33.23,57.37c-1.22,14.72-.69,29.53,1.49,44.14.28,1.9,3.18,1.09,2.89-.8-2.14-14.33-2.58-28.9-1.38-43.34.16-1.92-2.84-1.91-3,0h0Z"/><path d="m51.66,55.08c-.94,10.71-1.88,21.42-2.82,32.12-.17,1.92,2.83,1.91,3,0,.94-10.71,1.88-21.42,2.82-32.12.17-1.92-2.83-1.91-3,0h0Z"/><path d="m79.99,55.09c-.39,11.48-.78,22.95-1.17,34.43-.07,1.93,2.93,1.93,3,0,.39-11.48.78-22.95,1.17-34.43.07-1.93-2.93-1.93-3,0h0Z"/><path d="m90.2,52.39c3.63,9.48,4.44,19.84,2.2,29.75-.43,1.88,2.47,2.68,2.89.8,2.35-10.4,1.62-21.37-2.2-31.34-.68-1.78-3.59-1.01-2.89.8h0Z"/><path d="m122.64,43.57c0,9.96,0,19.91,0,29.87,0,1.93,3,1.93,3,0,0-9.96,0-19.91,0-29.87,0-1.93-3-1.93-3,0h0Z"/><path d="m129.7,43.92c3.14,7.9,3.07,16.65-.17,24.51-.74,1.78,2.16,2.56,2.89.8,3.42-8.27,3.48-17.79.17-26.1-.7-1.77-3.61-1-2.89.8h0Z"/><path d="m11.68,105.39c22.27-1.46,44.48-3.98,66.51-7.54,10.99-1.78,21.94-3.82,32.83-6.12,5.49-1.16,10.96-2.38,16.42-3.67,2.49-.59,4.98-1.33,7.52-1.68,2.07-.28,4.43-.29,6.18,1,2.98,2.2,2.94,6.98,1.67,10.11s-3.85,5.44-6.58,7.22c-7.09,4.62-15.52,6.08-23.64,7.82-22.37,4.79-44.74,9.57-67.11,14.36-5.61,1.2-11.23,2.4-16.84,3.6-4.95,1.06-10.55,2.96-15.64,1.84-4.27-.94-7.35-4.31-8.86-8.3-1.74-4.6-1.4-9.57-.37-14.29.57-2.62,1.34-5.2,2.11-7.77.56-1.85-2.34-2.65-2.89-.8-2.86,9.54-5.54,20.64,1.37,29.15,3.12,3.84,7.77,5.51,12.65,5.27,2.71-.13,5.39-.71,8.03-1.27,2.93-.63,5.86-1.25,8.79-1.88,23.59-5.05,47.18-10.09,70.77-15.14,5.68-1.21,11.37-2.36,17.03-3.65,3.9-.89,7.74-2.12,11.38-3.78,6.57-3,13.3-8.19,13.58-16.03.16-4.49-2.02-9.08-6.66-10.26s-10.27.88-14.95,1.98c-11.4,2.66-22.86,5.04-34.37,7.13-23.22,4.21-46.65,7.24-70.18,9.07-2.92.23-5.84.44-8.75.63-1.92.13-1.93,3.13,0,3h0Z"/></g></svg>